<svg width="399" height="395" viewBox="0 0 399 395" fill="none" xmlns="http://www.w3.org/2000/svg">
<path fill-rule="evenodd" clip-rule="evenodd" d="M103.5 1.6151C77.521 6.2751 56.124 17.1471 38.139 34.8251C21.026 51.6461 13.518 63.5221 5.93599 85.7601C-1.80001 108.45 -1.88001 136.816 5.72799 159.5C17.344 194.136 48.129 223.556 83.5 233.825C96.7677 237.677 109.833 237.414 123.308 236.828C134.969 236.325 147.985 231.835 158.38 226.755C168.219 221.946 177.222 215.931 185.591 208.92C185.591 208.92 207.251 233.633 216.414 244.5C240.81 273.433 254.958 282.163 277.5 282.191C290.762 282.208 303.42 278.303 314.733 270.706C323.948 264.518 326.959 260.039 326.984 252.484C327.015 242.614 319.019 234 309.157 234C297.129 234 289.9 245.915 277.5 246C270.047 246.052 268.002 244.246 262.58 241C258.498 238.556 253.605 233.916 246.367 225.622C240.665 219.089 236.024 213.122 236.024 213.122C236.024 213.122 248.745 203.952 256 200.668C285.246 187.43 314.244 193.168 337.406 216.778C347.051 226.609 351.144 232.377 354.851 241.358C363.51 262.339 362.876 285.709 353.08 306.642C343.01 328.163 324.124 345.036 301.412 352.803C286.734 357.823 265.29 358.338 251.5 354.002C224.911 345.64 206.091 325.6 198.97 298.064C198.339 295.624 196.798 288.537 196.769 282.314C196.739 276.091 197.405 271 197.405 271L161.179 266.005L160.459 274.646C159.594 285.028 160.325 293.898 163.11 306.837C172.028 348.264 203.236 380.116 245.773 391.207C256.475 393.997 258.899 394.265 273.5 394.275C291.036 394.287 298.821 393.071 314.5 387.873C323.073 385.031 336.812 378.275 343.427 373.649C389.137 341.682 408.893 286.588 392.784 236C387.103 218.16 378.461 204.312 364.062 189.974C332.653 158.7 279.437 145.213 238.5 166.5C228.5 171 211 183 211 183C211 183 203.826 176.303 201.379 173.438C200 171.822 196.933 168.25 194.564 165.5C189.115 159.176 183.565 152.578 178.685 146.62C171.728 138.131 163.191 128.631 153.723 122.631C135.232 110.914 116.118 109.091 96.007 117.127C81.32 122.996 74.508 129.015 73.4 137.101C72.047 146.971 77.301 155.424 86.365 157.962C91.968 159.531 94.239 159.011 105 153.697C113.336 149.582 124.79 146.923 133.5 151.788C145.612 158.55 153.655 170.538 162.694 180.823C149.914 192.035 134.213 199.245 117.119 200.611C92 202.618 67.229 189.995 50.625 166.727C41.03 153.281 36.925 139.892 36.912 122C36.905 112.634 37.374 108.882 39.439 101.781C45.855 79.7101 57.848 63.3631 77.074 50.4841C100.022 35.1121 131.912 32.3721 156.559 43.6551C183.505 55.9921 201.553 84.3391 200.915 113.327V124C204.897 124.432 236.671 127.663 236.671 127.663C236.967 127.367 237.2 121.134 237.189 113.812C237.145 85.4181 229.122 62.1381 212.104 41.0301C190.944 14.7861 158.409 -0.182904 123.119 0.0900959C116.729 0.139096 107.9 0.825096 103.5 1.6151Z" fill="url(#paint0_linear_25_139)"/>
<defs>
<linearGradient id="paint0_linear_25_139" x1="39.5" y1="37.5" x2="362.5" y2="353.5" gradientUnits="userSpaceOnUse">
<stop stop-color="#00C400"/>
<stop offset="1" stop-color="#084FA7"/>
</linearGradient>
</defs>
</svg>
